# xmcd
#
# Track frame offsets:
#	150
#	5775
#	24300
#	43687
#	67949
#	81719
#	104211
#	130558
#	148340
#
# Disc length: 2389 seconds
#
# Revision: 1
# Processed by: cddbd v1.5.2PL0 Copyright (c) Steve Scherf et al.
# Submitted via: audiograbber 1.83.01
#
DISCID=81095309
DTITLE=Kadavrik - Until The Die Is Cast
DYEAR=2007
DGENRE=Death Metal
TTITLE0=Cryophobia
TTITLE1=Icecold WInter's Grave
TTITLE2=Above the Weak
TTITLE3=The Voice Beside
TTITLE4=Dyster
TTITLE5=Thin and Frail
TTITLE6=Alive With Nothingness
TTITLE7=Baptized In Alcohol
TTITLE8=The Die Is Cast
EXTD=
EXTT0=
EXTT1=
EXTT2=
EXTT3=
EXTT4=
EXTT5=
EXTT6=
EXTT7=
EXTT8=
PLAYORDER=
